<svg fill="#42C7B3" height="200px" width="200px" version="1.1" id="Layer_1" xmlns="http://www.w3.org/2000/svg" xmlns:xlink="http://www.w3.org/1999/xlink" viewBox="0 0 512 512" xml:space="preserve" stroke="#42C7B3"><g id="SVGRepo_bgCarrier" stroke-width="0"></g><g id="SVGRepo_tracerCarrier" stroke-linecap="round" stroke-linejoin="round"></g><g id="SVGRepo_iconCarrier"> <g transform="translate(1 1)"> <g> <g> <path d="M365.933,161.133c5.12,0,8.533-3.413,8.533-8.533s-3.413-8.533-8.533-8.533s-8.533,3.413-8.533,8.533 S360.813,161.133,365.933,161.133z"></path> <path d="M331.8,195.267c5.12,0,8.533-3.413,8.533-8.533s-3.413-8.533-8.533-8.533c-5.12,0-8.533,3.413-8.533,8.533 S326.68,195.267,331.8,195.267z"></path> <path d="M365.933,195.267c5.12,0,8.533-3.413,8.533-8.533s-3.413-8.533-8.533-8.533s-8.533,3.413-8.533,8.533 S360.813,195.267,365.933,195.267z"></path> <path d="M331.8,161.133c5.12,0,8.533-3.413,8.533-8.533s-3.413-8.533-8.533-8.533c-5.12,0-8.533,3.413-8.533,8.533 S326.68,161.133,331.8,161.133z"></path> <path d="M297.667,161.133c5.12,0,8.533-3.413,8.533-8.533s-3.413-8.533-8.533-8.533s-8.533,3.413-8.533,8.533 S292.547,161.133,297.667,161.133z"></path> <path d="M476.832,93.686c0.02-0.269,0.035-0.54,0.035-0.819c0-5.12-3.413-8.533-8.533-8.533h-1.088 c-0.818-3.149-2.082-6.122-3.712-8.854l0.533-0.533c3.413-3.413,3.413-8.533,0-11.947c-3.413-3.413-8.533-3.413-11.947,0 l-0.533,0.533c-2.732-1.63-5.705-2.894-8.854-3.712v-1.088c0-5.12-3.413-8.533-8.533-8.533s-8.533,3.413-8.533,8.533v1.088 c-3.149,0.818-6.122,2.082-8.854,3.712L416.28,63c-3.413-3.413-8.533-3.413-11.947,0c-3.413,3.413-3.413,8.533,0,11.947 l0.533,0.533c-1.63,2.732-2.894,5.705-3.712,8.854h-1.088c-5.12,0-8.533,3.413-8.533,8.533c0,1.176,0.188,2.257,0.528,3.232 c-1.372,0.562-2.701,1.179-3.941,1.888c-4.267,2.56-9.387,3.413-14.507,3.413H136.387c-5.12,0-9.387-0.853-13.653-3.413 c-6.574-3.287-13.939-4.974-21.333-5.096v-0.024c0-18.773-15.36-34.133-34.133-34.133s-34.133,15.36-34.133,34.133v0.825 C13.452,97.552-1,114.57-1,135.533v281.6c0,23.893,18.773,42.667,42.667,42.667H98.84c7.68,0,15.36-1.707,22.187-5.12 c4.267-2.56,9.387-3.413,14.507-3.413h238.933c5.12,0,10.24,0.853,13.653,3.413c6.827,3.413,14.507,5.12,22.187,5.12h58.027 c23.893,0,42.667-18.773,42.667-42.667v-281.6C511,114.558,496.531,97.533,476.832,93.686z M421.374,81.663 c0.309-0.229,0.607-0.471,0.879-0.743c0.3-0.3,0.564-0.618,0.812-0.942c2.996-2.594,6.885-4.178,11.135-4.178 c4.249,0,8.139,1.585,11.135,4.178c0.247,0.324,0.512,0.642,0.812,0.942c0.342,0.342,0.685,0.64,1.034,0.913 c2.541,2.982,4.086,6.833,4.086,11.034h-34.133C417.133,88.584,418.744,84.668,421.374,81.663z M67.267,75.8 c9.387,0,17.067,7.68,17.067,17.067H50.2C50.2,83.48,57.88,75.8,67.267,75.8z M468.333,442.733H411.16 c-5.12,0-10.24-0.853-14.507-3.413c-6.827-3.413-14.507-5.12-22.187-5.12H135.533c-7.68,0-15.36,1.707-21.333,5.12 c-4.267,2.56-9.387,3.413-14.507,3.413H41.667c-14.507,0-25.6-11.093-25.6-25.6v-281.6c0-14.507,11.093-25.6,25.6-25.6h51.2h7.68 c5.12,0,9.387,0.853,13.653,3.413c6.827,3.413,14.507,5.12,22.187,5.12h237.227c7.68,0,15.36-1.707,21.333-5.12 c4.267-2.56,9.387-3.413,14.507-3.413h0.853h47.787h10.24c14.507,0,25.6,11.093,25.6,25.6v8.533H434.2 c-5.12,0-8.533,3.413-8.533,8.533s3.413,8.533,8.533,8.533h59.733V178.2h-51.2c-5.12,0-8.533,3.413-8.533,8.533 s3.413,8.533,8.533,8.533h51.2v17.067h-42.667c-5.12,0-8.533,3.413-8.533,8.533s3.413,8.533,8.533,8.533h42.667v17.067H459.8 c-5.12,0-8.533,3.413-8.533,8.533c0,5.12,3.413,8.533,8.533,8.533h34.133V280.6H459.8c-5.12,0-8.533,3.413-8.533,8.533 c0,5.12,3.413,8.533,8.533,8.533h34.133v17.067h-42.667c-5.12,0-8.533,3.413-8.533,8.533s3.413,8.533,8.533,8.533h42.667v17.067 h-51.2c-5.12,0-8.533,3.413-8.533,8.533c0,5.12,3.413,8.533,8.533,8.533h51.2V383H434.2c-5.12,0-8.533,3.413-8.533,8.533 s3.413,8.533,8.533,8.533h59.733v17.067C493.933,431.64,482.84,442.733,468.333,442.733z"></path> <path d="M400.067,237.933c-18.773,0-34.133,15.36-34.133,34.133c0,18.773,15.36,34.133,34.133,34.133 c18.773,0,34.133-15.36,34.133-34.133C434.2,253.293,418.84,237.933,400.067,237.933z M400.067,289.133 c-9.387,0-17.067-7.68-17.067-17.067S390.68,255,400.067,255s17.067,7.68,17.067,17.067S409.453,289.133,400.067,289.133z"></path> <path d="M383,348.867h-51.2c-9.387,0-17.067,7.68-17.067,17.067V383c0,9.387,7.68,17.067,17.067,17.067H383 c9.387,0,17.067-7.68,17.067-17.067v-17.067C400.067,356.547,392.387,348.867,383,348.867z M383,383h-51.2v-17.067H383V383z"></path> <path d="M324.12,272.92c0-23.04-5.973-46.08-17.067-65.707c-0.273-0.818-0.808-1.547-1.492-2.163 c-22.049-38.832-62.574-65.951-109.404-69.183c-0.176-0.012-0.352-0.022-0.528-0.034c-1.216-0.079-2.435-0.142-3.659-0.189 c-0.33-0.013-0.659-0.028-0.99-0.038c-1.411-0.044-2.826-0.073-4.248-0.073c-5.469,0-10.863,0.335-16.169,0.969 c-1.752,0.177-3.504,0.366-5.256,0.559c-0.776-0.089-1.594-0.04-2.468,0.178l-0.297,0.074c-0.613,0.076-1.18,0.229-1.717,0.429 l-1.399,0.35c-0.853,0-0.853,0-0.853,0c-40.107,7.68-73.387,33.28-93.013,69.973c-0.238,0.357-0.435,0.733-0.606,1.118 c-10.664,19.351-15.607,41.113-15.607,62.882c0,23.04,5.973,46.08,17.067,65.707c0.576,0.863,1.257,1.619,2.027,2.255 c22.167,38.328,62.419,65.031,108.869,68.238c0.176,0.012,0.352,0.022,0.528,0.034c1.216,0.079,2.435,0.142,3.659,0.189 c0.33,0.013,0.659,0.028,0.99,0.038c1.411,0.044,2.826,0.073,4.248,0.073c5.468,0,10.86-0.335,16.165-0.968 c2.125-0.215,4.249-0.447,6.374-0.683c0.327,0.081,0.839,0.283,1.355,0.798c40.96-6.827,77.653-33.28,97.28-70.827 c0.269-0.404,0.48-0.833,0.664-1.273C319.194,315.556,324.12,294.648,324.12,272.92z M183.23,391.478 c-0.461-0.013-0.92-0.034-1.379-0.053c-0.657-0.026-1.313-0.057-1.968-0.094c-0.646-0.037-1.292-0.076-1.936-0.124 c-0.321-0.023-0.641-0.051-0.962-0.077c-38.9-3.18-72.679-25.204-92.129-56.869l33.646-47.638l35.208,49.211 c0.171,0.374,0.365,0.739,0.596,1.085l39.073,54.424c-2.201,0.122-4.416,0.19-6.647,0.19 C185.563,391.533,184.396,391.511,183.23,391.478z M244.696,167.712c0.062,0.035,0.123,0.069,0.185,0.104 c0.732,0.407,1.454,0.831,2.177,1.253c10.73,6.325,20.398,14.276,28.66,23.511c4.663,5.281,8.884,11.016,12.562,17.194 L255,256.707l-65.705-91.09l-9.209-12.827c2.045-0.114,4.103-0.175,6.173-0.184C207.007,152.67,227.112,157.981,244.696,167.712z M306.15,275.411c0,0.009-0.001,0.018-0.001,0.027c-0.5,16.692-4.699,32.635-11.896,47.829h-65.707l69.077-95.514 c5.526,13.72,8.576,28.678,8.576,44.314C306.2,273.185,306.183,274.3,306.15,275.411z M212.527,388.702l-34.315-48.368h34.122 h71.68c-16.768,24.313-42.598,41.206-71.013,48.265C212.843,388.634,212.684,388.667,212.527,388.702z M166.709,324.12 l-37.428-52.756l35.666-50.497h43.23l37.046,51.375l-37.265,51.878H166.709z M74.845,313.815 c-4.585-12.982-7.578-27.365-7.578-41.748c0-1.118,0.017-2.233,0.05-3.344c0-0.009,0.001-0.017,0.001-0.026 c0.5-16.692,4.699-32.636,11.896-47.829h64.853L75.843,316.38C75.5,315.53,75.168,314.674,74.845,313.815z M160.539,155.52 l34.728,48.28h-34.133H88.847C105.677,179.784,131.091,162.173,160.539,155.52z"></path> </g> </g> </g> </g></svg>